<mxfile host="65bd71144e">
    <diagram id="ObncQimw4ppXLVqh2f04" name="Page-1">
        <mxGraphModel dx="1191" dy="702" grid="1" gridSize="10" guides="1" tooltips="1" connect="1" arrows="1" fold="1" page="1" pageScale="1" pageWidth="850" pageHeight="1100" math="0" shadow="0">
            <root>
                <mxCell id="0"/>
                <mxCell id="1" parent="0"/>
                <mxCell id="2" value="Entities:&amp;nbsp;&lt;br&gt;- word&lt;br&gt;- set" style="text;html=1;align=center;verticalAlign=middle;resizable=0;points=[];autosize=1;strokeColor=none;fillColor=none;" vertex="1" parent="1">
                    <mxGeometry x="20" y="25" width="60" height="50" as="geometry"/>
                </mxCell>
                <mxCell id="3" value="API word:&lt;br&gt;copy&lt;br&gt;add&lt;br&gt;remove&lt;br&gt;" style="text;html=1;align=center;verticalAlign=middle;resizable=0;points=[];autosize=1;strokeColor=none;fillColor=none;" vertex="1" parent="1">
                    <mxGeometry x="15" y="100" width="70" height="60" as="geometry"/>
                </mxCell>
            </root>
        </mxGraphModel>
    </diagram>
</mxfile>